<?xml version="1.0" encoding="utf-8"?>
<!-- Generator: Adobe Adobe Illustrator 24.2.0, SVG Export Plug-In . SVG Version: 6.00 Build 0)  -->
<svg version="1.1" xmlns="http://www.w3.org/2000/svg" xmlns:xlink="http://www.w3.org/1999/xlink" x="0px" y="0px" width="1080px"
	 height="1080px" viewBox="0 0 1080 1080" style="enable-background:new 0 0 1080 1080;" xml:space="preserve">
<style type="text/css">
	.st0{fill:#F2EFE4;}
	.st1{display:none;}
	.st2{display:inline;}
	.st3{fill:#A38637;}
</style>
<g id="Layer_1">
	<g>
		<path class="st0" d="M595.66,855.06c-8.84-2.41-12.47-8.77-15.44-15.38c-12.05-3.74-35.03,16.7-33.54-7.95
			c0.38-8.19-17.67-10.14-25.95-2.72c-7.52,6.74-15.75,10.96-24.71,11.2c-4.7-3.95,1.08-7.64-2.75-11.08
			c-3.58-0.46-7.72-0.99-11.69-1.5c-3.32-5.67,0.48-12.53-5-17.39c-2.68-2.37,0.22-5.9,2.95-7.32
			c16.15-8.43,30.59-20.32,49.24-23.74c10.89-2,21.44-18.84,26.91-27.59c7.6-12.18-1.88-23.89,3.26-35.77
			c1.7-3.93-5.86-12.49-1.48-21.45c-45.06,2.4-13.13,26.05-46.45,12.24c3.61-19.79,33.4-16.49,31.07-38.74
			c-8.29,0.4-30.72-24.51-14.91-28c6.36,0.84,14.56-8.06,18.47,0.76c3.14,7.1,13.67,6.39,13.72,15.77c0.01,1.29,6,0.4,9.45-0.76
			c12.5-4.19,24.69-9.55,38.5-8.78c11.07,0.44,19.22-13.64,15.65-23.28c14.59-12.75-0.8-26.22,2.94-40.03
			c1.99-5.39,12.86-3.89,10.35-12.65c-1.79-6.24-0.03-11.78,2.24-17.25c-11.71-10.58-15.54,8.37-25.71,5.46
			c-1.09-5.27-0.84-12.61-9.4-13.15c-11.22-9-14.29-40.41-10.06-54.16c3.2-9.85,10.52-16.33,16.31-23.94
			c-5.38-4.57-11.5-8.14-13.87-3.83c-5.95,10.8-18.19,12.39-25.9,20.54c-6.67,7.05-15.91,4.13-23.83,0.14
			c-2.12-1.07-3.11-4.37-7.5-2.47c-5.41,3.23,1.96,9.21-1.82,14.27c-6.1,3.94-11.67-0.09-16.78-3.74
			c-5.37-3.83-10.72-6.97-17.41-6.95c-6.05,6.47,5.76,11.88,0.5,17.99c-10.86-1.33-30.12-27.85-24.58-36.04
			c5.16-7.63,11.72-13.97,15.94-22.84c5.18-10.9,8.9-23.06,19.63-31.17c4.25-3.21,4.13-13.18-1.06-14.69
			c-17.34-4.98-9.68-19.22-14.35-30.62c-12.06-4.19-7.4,14.62-20.42,10.03c-8.67-2.04-11.06,3.6-11.35,11.69
			c6.11-0.16,14.71-7.35,16.07,2.82c0.95,7.13,8.11,16.17-0.69,22.5c-9.28,6.66-12.18-3.55-17.34-8.92
			c-4.62,2.64-7.44,6.19-5.51,11.35c4.48,9.03-9.36,18.16-16.34,12.83c-9.91-9.66,2.23-32.41,6.61-43.29
			c3.52-6.9-2.45-12.95-2.1-19.95c-2.64-13.14,14.5-22.91,1.12-33.72c-5.07-4.21-1.17-12.52,2.37-14.76
			c8.09-5.11,7.75-12.59,9.64-20.56c-21.67,6.55-3.5,17.15-21.23,22.37c-7.72,0.93-14.07,6.56-22.39,5.42
			c-4.48-0.62-9.92,6.47-13.66-0.55c-4.07-7.63,4.91-7.25,7.73-10.72c7.22-8.86-2.46-12.68-5.66-18.07c0.56-6,6.77-6.78,9.3-11.88
			c0.15-3.92-8.3-6.81-2.93-12.92c3.17-2.16,7.22-0.8,10.99-0.9c10.43-0.27,15.7-4.11,11.8-15.18c-3.21-9.14,5.6-13.44,9.02-19.09
			c2.89-4.77,5.67-10.27,9.31-13.94c0.83-5.67-6-5.59-5.77-10.98c0.09-3.71,6.96-2.45,7.14-7.17c-3.06-3.93-6.38-0.22-9.52-0.35
			c-9.76-0.4-15.08-7.18-10.83-14.37c7.11-12.02,3.91-23.88,3.94-35.86c31.76-18.95,32.6,8.46,43.54-13.67
			c-4.42-7.95-16.89-2.8-19.7-12.64c1.39-4.14,6.67-1.5,8.86-5.97c1.54-4.16-5.01-7.26-3.55-12.66c3.51-5.04,8.49,0.16,13.89-1.46
			c-11.5-12.05-3.6-24.14,0.97-34.84c7.14-16.69,17.96,3.23,27.47-2.35c-0.45,7.14-0.8,12.77-1.32,21.11
			c9.82-5.95,0.7-16.62,10.91-17.85c5.14-0.62,3.35,5.02,5.46,8.11c4.9-5.01,10.27-8.66,16.87-8.6c14.04,0.13,27.1-8.72,41.61-4.21
			c9.93-0.42,7.87-14.58,24.24-4.48c1.17,4.71-4.31,9.45,0.05,15.38c2.62,3.56,0.18,11.85-3.28,14.16
			c-10.08,6.75-15.55,18.36-25.24,24.3c-9.66,7.86-39.84,27.96-16.23,36.59c-7.82,11.63-14.74,23.38-23.26,34.37
			c14.42-14.33,36.27-12.42,51.41-24.6c0.88-0.71,2.73-1.07,3.73-0.64c14.71,6.29,29.83-2.17,44.86,1.61
			c10.36,2.61,21.06-2.52,31.95-1.97c17.32-1.59,30.11,22.08,15.82,33.74c-5.07,4.57-7.48,10.26-8.54,16.94
			c-3.16,19.84-11.77,36.85-22.17,54.28c-7.05,11.81-13.47,24.34-21.33,35.99c-2.83,4.19-1.7,9.06,4.33,11.33
			c3.44,1.29,8.02,0.94,9.8,5.63c-5.33,15.66-23.59,8.09-31.52,16.8c-10.12,11.11-24.58,6.97-37.04,14.92
			c17.34-0.22,34.39,8.93,48.13-3.9c9.93-10.77,21.55-3.78,30.78,0.69c19.23,8.56,29.24,13.23,37.87,34.35
			c24.25,8.3,20.54,31.24,25.59,49.4c1.85,6.65,6.66,11.05,9.99,16.46c5.47,8.87,5.87,19.65,11.14,28.11
			c7.93,12.73,19.69,20.6,34.23,26c12.59,4.67,19.69,17.36,28.93,27.02c18.23,19.05,15.58,47.61,33.77,63.15
			c0,7.54-6.68,6.08-7.61,10.6c5.17,10.81,17.79,14.33,25.49,22.99c11.67,12.34,11.13,24.44-1.31,35.62
			c-4.09,3.68-9.63,6.18-9.38,12.69c1.15,4.62,6.1,3.13,8.29,5.65c8.64,9.96,14.2,7.89,17.8-4.14
			c11.05-23.19,93.49-3.91,94.66,20.34c3.7,20.96-5.38,40.58-5.76,61.14c-0.14,7.59-11.21,13.74-22.85,15.29
			c1.96,5.66,7.79,10.59,2.98,17.45c-4.77,6.81-10.39,7.92-17.92,4.67c-3.31-1.43-6.66,0.82-8.81,3.96
			c6.6,10.16-1.93,24.79-17.25,29.13c-3.61,1.03-7.88,0.14-10.85,5.39c5.81-0.69,11.12-2.6,16.1-0.07
			c-1.71,34.37,35.36-4.59,53.39,4.83c14.43,43.47-19.16,20.39-25.39,50.55c-0.17,1.04-1.63,2.59-2.6,2.68
			c-24.71,0.26-44.38,30.5-58.4,20.74c-12.07-5.21-24.25-5.33-36.33-0.18c-9.57,4.08-20.44,3.18-29.78,8.2
			c-13.12,3.31-6.03-19.46-31.57-3.39c4.42,3.88,7.22,6.33,10.33,9.05c-3.02,17.49-21.1,17.6-28.72,4.15
			c-0.38-6.6,5.82-5.81,7.9-11.08c-13.41,8.35-32.68-2.5-37.74,11.44c-2.44,10.38-9.49,10.55-16.75,9.28
			c-14.18-2.47-28.69,2.12-42.96-7.33c-10.53-6.96-24.52,0.27-36.92,4.07c-14.78,4.53-20.27,12.62-18.91,28.15
			c0.65,7.4-9.14,12.37-10.91,20.51c-0.42,1.92-4.82,2.23-6.96,0.4c-11.73-10.1-27.49-8.49-41.02-12.48
			c-11.68-3.95-29.15,7.15-38.84,16.59c-8.53,4.16-19.4,5.14-17.06,19.74c0.56,3.51-7.6,5.81-12.58,7.35
			c-6.4-3.71-4.97-15.92-16.29-14.08c-7.21,1.17-10.97,12.74-21.03,6.18c3.41-26.49,42.86-20.37,48.11-49.57
			c9.44-16.32,35.43-20.82,36.81-44.16c2.03-25.21,25.75-8.37,23.41-25.18c-2.28-8.88,3.51-8.9,9.48-11.52
			c13.19-5.79,27-4.46,40.22-4.14c8.86,0.22,17.71,4.39,27.14,1.74c2.89-0.81,8-0.79,7.99-3.04c-0.02-15.29,13.43-21.26,24.37-32.95
			C620.62,844.11,631.12,877.39,595.66,855.06z"/>
		<path class="st0" d="M270.29,447.25c19.52-13.52,40.11-16.48,50.8-7.25c10.19-15.76,29.2-20.98,42.95-5.84
			c-4.33,8.46-15.25,10.53-17.72,20.04c3.4,3.05,7.44,3.59,9.98-0.28c12.07-18.43,32.04-14.43,48.94-15.93
			c17.47-1.55,17.59,17.28,23.83,28.1c6.23,17.19,28.89,10.29,12.94,32.72c6.29,4.15,14.82,2.8,18.84,13.39
			c9.28,23.69-1.11,34.34-23.46,39.96c-3.02,11.95-14.54,16.48-21.15,25.07c-5.74,7.46-10.88,0.41-18.6,2.35
			c8.43,12.16,8.56,26.71,15.65,38.9c7.01,12.05,1.85,29.27-9.98,32.71c16.42,10.34,24.73,40.14,15.54,57.44
			c-8.35,15.73-9.13,34.41-20.37,49.2c-3.77,4.96,6.43,12.48,0.34,19.73c-20.83,3.98-33.87-14.66-41.42,2.47
			c-10.57,11.92-26.84-14.01-44.87,15.03c-1.18,1.64-3.01,3.93-4.6,3.98c-16.11,0.57-28.62,11.31-42.01,17.55
			c-11.48,5.35-24.76,10.13-34.82,19.29c-16.55,16.21-28.67,2.33-47.92,17.33c-5.92-1.91-2.78-7.46-5.71-10.2
			c-10.96-2.08-19.05,11.43-30.8,6.76c-0.59-6.91,3.61-7.8,8.79-8.7c-4.89-1.4-3.88-6.9-6.89-8.94c-6.89-0.28-12.4,5.72-19.37,2.31
			c-0.18-6.49,6.09-9.91,7.59-15.35c-3.84-6.65-11.26-3.14-16.31-6.94c-25.13-18.51,13.91-26.89,28.03-35.31
			c-12.67-6.69-25.91-0.11-38.26-5.66c11.65-22.11,37.72-1.64,37.72-23.81c-0.08-2.69,1.18-5.83,4.05-5.85
			c11.37-0.09,15.6-11.3,25.66-14.08c-8.74-8.32-14.83,6.07-23.32-0.36c9.24-5.9,9.86-19.08,22.65-22.52
			c3.91-1.05,10.61-7.08,6.08-15.56c-2.62-4.9,11.87-21.81,19.51-23.62c5.01-1.19,10.38-1.41,10.99-7.91
			c-2.79-4.04-6.15-2.57-8.41-1.12c-12.84,8.24-26.6-2.19-39.66,2.23c-2.74,0.93-3.25-3.34-4.89-5.03
			c-13.75-21.76-24.48-3.19-25.03-30.94c-0.98-7.25,6.87-5.99,11.33-7.78c17.51-4.33-5.11-18.85,26.59-26.4
			c-15.11-1.2-28.2-4.23-34.74-19.3c3.5-5.71,10.7-4.77,16.75-6.38c1.27-6.05-4.66-9.72-2.85-15.28c-4.33,0.63-4.94,7.35-10.89,4.1
			c-3.52-5.01,0.71-11.68,3.84-12.17c8.96-1.41,15.45-8.4,26.47-6.77c15.17,2.25,29.91,10.35,46.12,5.82
			c7.56-1.9,18.81,7.55,23.25-3.04c7.04-13.74,25.05-13.05,30.98-27.15c-10.54-5.22-29.79,3.08-35.58-8.69
			c-1.89-5.47,2.26-8.06,6.16-9.85c7.09-3.25,10.22-11.35,18.95-13.27C253.9,463.42,265.92,457.05,270.29,447.25z"/>
		<path class="st0" d="M410.23,106.95c1.37,39.55-32.51,36.61-34.09,51.14c-1.27,8.32-15.81,10.65-19.09,2.14
			c-2.56-5.14,1.21-7.93,4.43-10.84c8-7.24,0.95-15.84-1.56-20.43c-3.64-6.66-4.45-11.06-1.03-17.11c4.32-7.64,9.56-2,15.67-0.52
			c-2.97-15.17,19.53-14.15,26.07-25.93C414.85,68.35,417.62,97.84,410.23,106.95z"/>
		<path class="st0" d="M410.95,232.07c-15.79-4.44-11.68-24.59-28.18-25.55c-5.14-0.17-7.38-7.02-3.95-10.98
			c7.83-5.61,2.97-19.53,14.07-13.95c3.06,1.61,2.75,6.51,7.05,6.89c5.75-7.27-5.21-15.87,2.41-23.66
			c8.26,5.22,11.77,12.48,11.91,22.23c-1.36,43.36,60.37,15.6,13.89,56.54C422.32,239.67,417.04,236.12,410.95,232.07z"/>
		<path class="st0" d="M440.69,343.63c4.86,1.41,5.25,4.67,3.6,7.36c-6.57,9.99-26.09,54.79-39.19,52.03
			c-6.41-2.44-0.28-8.6-2.44-12.63c-2.7-4.13-7.73,0.8-11.35-4.2c-0.41-6.14,3.23-14.49,8.95-15.42
			C427.05,366.76,426.06,346.68,440.69,343.63z"/>
		<path class="st0" d="M535.51,532.44c0.79,20.66-5.31,28.96-22.45,31.87c-3.03-12.71,4.02-29.06,14.88-34.57
			C530.87,528.25,533.59,527.47,535.51,532.44z"/>
		<path class="st0" d="M331.1,173.89c5.4-3.35,10.92,0.57,15.72-2.87c5.22-3.85,10.59,8.88,5.72,10.67
			c-8.88,2.79-7.46,9.07-6.47,15.42c2.33,6.93-9.31,7.64-9.3,2.45C339.96,189.65,330.17,183.45,331.1,173.89z"/>
		<path class="st0" d="M329.9,215.72c2.76-6.43,6.46-8.98,13.77-5.76c-0.86,7.18,3.66,23.33-6.81,25.05
			C328.16,233.61,329.76,223.02,329.9,215.72z"/>
		<path class="st0" d="M415.22,344.34c-1.25,5.25,0.16,10.86-6.25,12.89C399.6,353.84,406.69,335.1,415.22,344.34z"/>
	</g>
</g>
<g id="Layer_2" class="st1">
	<g class="st2">
		<path class="st3" d="M211.75,762.67c-27.87-6.78-55.57-12.41-82.55-20.47c-27.37-8.17-29.47-13.84-26.99-41.9
			c0.63-25.06-26.88-42.27,1.42-61.99c11.21-11.15,7.99-37.23-1.35-48.57c-4.88-17.67-10.69-35.2-13.89-53.18
			c-1.68-9.43,1.77-19.68,1.98-29.57c-2.29-11.31-6.19-24.13-1.57-35.37c-3.88-34.68-16.39-69.71-32.81-99.84
			c-8.67-13.97-7-25.69-6.89-39.18c0.02-2.19-3.16-5.39-5.58-6.43c-29.3-11.69-14.23-54.96,16.26-39.91
			c11.41,5.99,12.99,19.33,7.43,32.68c-2.33,5.59,1.54,14.39,4.01,21.21c10.86,25.76,22.35,51.41,33.52,77.08
			c0.43,0.94,5.87,1.14,7.16-0.15c12.23-9.62,8.59-25.01,6.82-38.45c3.74-0.32,10.28-1.81,10.72-0.75
			c2.93,6.17,0.76,15.81,3.12,21.73c14.4,12.78,26.4,29.5,43.54,38.53c8.22-15.41,0.99-42.62,0.95-60.49
			c-4.18-22.35-9.35-23.6,0.12-46.23c1.04-20.65-30.87-22.3-17.71-51.86c15.76-25.52,67.23-4.27,47.89,28.24
			c-4.47,7.9,3.18,25.9,10.97,30.39c5.06,4.3,5.17,16.23,8.54,22.61c1.5,2.86,5.89,5.41,5.66,7.76
			c-1.79,18.28,16.5,26.89,20.17,42.49c8.66,4.31,19.75-5.74,19.91-15.48c0.78-3.85-0.23-8.82,1.87-11.38
			c15.8-7.12,10.39,19.37,13.81,28.15c2.61,5.31,22.29,18.56,23.63,21.94c3,7.61,1.37,3.06-5.99,8.8
			c-2.45,1.91-20.87-10.28-24.87-7.76c-1.39,1.15-5.8,9.84-5.63,10.15c4.07,5.6,7.19,18.58,15.67,10.32
			c14.57-26.28,104.12-117.68,81.12-139.68c-3.33-4.66-0.23-19.7,4.64-22.88c5.5-3.59,19.14-2,23.83,2.72
			c5.8,7.1-3.35,28.09-1.25,37.3c17.87,24.84,32.34,53.68,53.43,75.53c30.86-20.81,16.81,8.47,20.52,26.35
			c3.93,4.09,12.3-8.64,12.79-11.54c2.27-26.52,17.79-13.65,14.88-25.08c-10.4-18.63,10-14.58,7.77-26.57
			c-18.9-27.44,22.38-4.24,19.36-47.86c-1.32-7.93,0.85-20.42,6.24-24.38c21.05-8.69,33.74,3.96,25.97,26.53
			c-3.47,9.46-0.39,28.78,9.64,32.59c12.25,4.65,8.08,10.44,3.07,17.86c-2.45,10.07,3.58,25.01-4.39,33.8
			c12.04,6.96,17.02,21.49,21.04,34.13c8.84,1.47,11.12-29.91,18.47-32.48c6.1-2.13,10.29,8.22,17.81,4.38
			c18.72-19.38,37.38-38.82,55.45-58.79c2.28-2.52,2.86-8.94,1.31-12.13c-13.59-21.1,19.17-43.29,32.23-21.89
			c11.99,19.61-10.13,22-10.86,36.93c0.12,19.89,58.63,137.57,75.38,133.48c1.96-3.37,8.55-20.69,7.18-23.02
			c-1.87-3.18-26.72,16.8-27.78,14.15c-3.18-7.98-8.22-0.15-7.36-6.9c1.33-10.42,34.24-27.98,40.51-30.63
			c4.19-4.15,7.4-14.88,12.17-19.06c16.12-2.13,5.39,12.68,5.13,20.72c6.93,15.02,34.23-35.68,38.86-41.7
			c-3.21-11.26,1.54-14.5,12.28-17.87c8.14-2.55,14.53-11.71,9.39-23.27c-14.99-32.77,38.73-51.87,51.64-23.25
			c5.52,13.29-1.64,28.38-16.65,34.69c-13.96,5.87-6.9,15.87-5.14,24.9c0.58,2.98,2.37,7.06,1.09,8.88
			c-15.91,22.73-11.22,50.53-18.8,75.27c-0.9,2.94,1.54,6.89,2.43,10.38c17.59-5.17,30.93-19.57,45.85-29.76
			c4.3-5.54,3.49-17.12,8.4-22.69c1.16-1.31,6.91,1.43,10.57,2.32c-5.71,24.67-13.99,16.41,3.87,38.93
			c0.11,0.15,1.83-0.36,2.16-0.93c7.88-13.92,15.08-28.27,23.66-41.74c6.09-9.56,14.68-17.51,20.85-27.03
			c14.31-16.93-2.07-41.91,22.62-50.56c12.88-3.92,25.57,1.49,28.8,12.29c3.85,12.86-4.01,26.67-17.85,30.08
			c-14.43,3.55-7.91,15.29-10.02,23.69c-11.69,32.72-36.94,60.01-53.73,90.6c-0.02,47.36-21.64,92.27-39.53,135.6
			c-4.7,14.5-20.67,30.49-10.4,45.61c17.81,22.24,17.24,23.33,1.89,46.73c-12.85,14.95-3.47,49.71-28.41,51.86
			C666.05,828.12,437.04,796.31,211.75,762.67z M126.85,453.36c-0.01,0.88-0.41,2.19,0.02,2.58c10.37,9.33,20.73,18.69,31.47,27.57
			c0.84,0.69,5.54-1.38,6.66-3.25C181.54,453.42,147.85,429.15,126.85,453.36z M917.46,529.04c7.67-3.33,8.33-8.2,3.56-14.7
			c-9.4-12.8-18.23-3.1-27.02,0.68c-10.9,4.69-8.48,13.75-4.6,21.09C896.28,540.47,910.02,534.2,917.46,529.04z"/>
	</g>
</g>
</svg>
